<svg width="15" height="18" viewBox="0 0 15 18" xmlns="http://www.w3.org/2000/svg"><g fill="none" fill-rule="evenodd"><path d="M-3-2h22v22H-3z"/><path d="M2.497 2.865l9.459-.04v13.242h.86V1.987H2.496v.878zM4.54 0v.877l9.459-.04-.001 13.242h.86V0H4.54zM.857 16.308l.527.513.994-.968.997.97 1.003-.96.986.96 1.002-.96.986.96 1.011-.968.992.966.561-.546V4.809H.856v11.499zM0 3.976h10.773V16.62L9.355 18l-.996-.97-1.012.967-.985-.96-1.003.96-.986-.96-1.003.96-.992-.965-.994.968L0 16.653V3.976z" fill="#8B9396" fill-rule="nonzero"/></g></svg>
